G04 EAGLE Gerber RS-274X export*
G75*
%MOMM*%
%FSLAX34Y34*%
%LPD*%
%INBottom Copper*%
%IPPOS*%
%AMOC8*
5,1,8,0,0,1.08239X$1,22.5*%
G01*
G04 Define Apertures*
%ADD10C,0.152400*%
%ADD11C,0.756400*%
%ADD12C,0.300000*%
G36*
X755875Y12720D02*
X755578Y12660D01*
X13422Y12660D01*
X13147Y12711D01*
X12892Y12875D01*
X12720Y13125D01*
X12660Y13422D01*
X12660Y446578D01*
X12711Y446853D01*
X12875Y447108D01*
X13125Y447280D01*
X13422Y447340D01*
X72518Y447340D01*
X77171Y449267D01*
X80733Y452829D01*
X82660Y457482D01*
X82660Y641501D01*
X82707Y641765D01*
X82866Y642023D01*
X83114Y642198D01*
X83410Y642263D01*
X83708Y642208D01*
X83961Y642040D01*
X88169Y637832D01*
X88332Y637591D01*
X88392Y637293D01*
X88392Y498925D01*
X113353Y473964D01*
X130865Y473964D01*
X131151Y473908D01*
X131403Y473741D01*
X134200Y470944D01*
X138596Y470944D01*
X138907Y471255D01*
X139127Y471408D01*
X139422Y471478D01*
X139721Y471427D01*
X139976Y471264D01*
X140148Y471014D01*
X140208Y470717D01*
X140208Y467607D01*
X140152Y467321D01*
X139985Y467068D01*
X118120Y445203D01*
X117879Y445040D01*
X117581Y444980D01*
X113626Y444980D01*
X110518Y441872D01*
X110518Y441190D01*
X110471Y440927D01*
X110312Y440669D01*
X110064Y440493D01*
X109768Y440428D01*
X109470Y440484D01*
X109217Y440651D01*
X102303Y447565D01*
X102140Y447807D01*
X102080Y448104D01*
X102080Y451016D01*
X98972Y454124D01*
X94576Y454124D01*
X91468Y451016D01*
X91468Y446620D01*
X94576Y443512D01*
X97488Y443512D01*
X97774Y443456D01*
X98027Y443289D01*
X111523Y429792D01*
X116411Y429792D01*
X116674Y429745D01*
X116932Y429586D01*
X117107Y429338D01*
X117172Y429042D01*
X117117Y428744D01*
X116949Y428491D01*
X116614Y428156D01*
X116614Y423760D01*
X119722Y420652D01*
X123677Y420652D01*
X123963Y420596D01*
X124216Y420429D01*
X163645Y381000D01*
X211637Y381000D01*
X211923Y380944D01*
X212175Y380777D01*
X214972Y377980D01*
X219368Y377980D01*
X222476Y381088D01*
X222476Y385484D01*
X219368Y388592D01*
X214972Y388592D01*
X212175Y385795D01*
X211934Y385632D01*
X211637Y385572D01*
X165855Y385572D01*
X165569Y385628D01*
X165316Y385795D01*
X127449Y423662D01*
X127286Y423903D01*
X127226Y424201D01*
X127226Y428156D01*
X126891Y428491D01*
X126738Y428711D01*
X126668Y429006D01*
X126719Y429305D01*
X126882Y429560D01*
X127132Y429732D01*
X127429Y429792D01*
X132317Y429792D01*
X134379Y431855D01*
X134621Y432018D01*
X134918Y432078D01*
X135413Y432078D01*
X135699Y432022D01*
X135951Y431855D01*
X138010Y429796D01*
X142406Y429796D01*
X145227Y432617D01*
X145468Y432780D01*
X145765Y432840D01*
X200135Y432840D01*
X270019Y502725D01*
X270261Y502888D01*
X270558Y502948D01*
X273470Y502948D01*
X273805Y503283D01*
X274025Y503436D01*
X274320Y503506D01*
X274619Y503455D01*
X274874Y503292D01*
X275046Y503042D01*
X275106Y502745D01*
X275106Y285032D01*
X275050Y284746D01*
X274883Y284493D01*
X245855Y255465D01*
X245613Y255302D01*
X245316Y255242D01*
X242404Y255242D01*
X239296Y252134D01*
X239296Y247738D01*
X242404Y244630D01*
X246800Y244630D01*
X249908Y247738D01*
X249908Y250650D01*
X249964Y250936D01*
X250131Y251189D01*
X277591Y278649D01*
X277822Y278807D01*
X278118Y278872D01*
X278416Y278816D01*
X278669Y278649D01*
X308119Y249198D01*
X546941Y249198D01*
X547204Y249151D01*
X547462Y248992D01*
X547637Y248744D01*
X547702Y248448D01*
X547647Y248150D01*
X547479Y247897D01*
X547144Y247562D01*
X547144Y243166D01*
X550252Y240058D01*
X554648Y240058D01*
X557445Y242855D01*
X557686Y243018D01*
X557983Y243078D01*
X783597Y243078D01*
X783883Y243022D01*
X784136Y242855D01*
X832170Y194821D01*
X832323Y194601D01*
X832393Y194306D01*
X832342Y194007D01*
X832179Y193752D01*
X831929Y193580D01*
X831631Y193520D01*
X830668Y193520D01*
X827871Y190723D01*
X827630Y190560D01*
X827333Y190500D01*
X802887Y190500D01*
X802601Y190556D01*
X802348Y190723D01*
X774377Y218694D01*
X168601Y218694D01*
X168315Y218750D01*
X168063Y218917D01*
X165266Y221714D01*
X160870Y221714D01*
X157762Y218606D01*
X157762Y214210D01*
X160870Y211102D01*
X165266Y211102D01*
X168063Y213899D01*
X168304Y214062D01*
X168601Y214122D01*
X745799Y214122D01*
X746062Y214075D01*
X746320Y213916D01*
X746495Y213668D01*
X746560Y213372D01*
X746505Y213074D01*
X746337Y212821D01*
X746026Y212510D01*
X746026Y208114D01*
X749134Y205006D01*
X753530Y205006D01*
X756327Y207803D01*
X756568Y207966D01*
X756865Y208026D01*
X773691Y208026D01*
X773977Y207970D01*
X774230Y207803D01*
X807535Y174498D01*
X827333Y174498D01*
X827619Y174442D01*
X827871Y174275D01*
X830668Y171478D01*
X835064Y171478D01*
X838172Y174586D01*
X838172Y178982D01*
X835194Y181960D01*
X835036Y182191D01*
X834971Y182487D01*
X835026Y182785D01*
X835194Y183038D01*
X838172Y186016D01*
X838172Y186979D01*
X838219Y187243D01*
X838378Y187501D01*
X838626Y187676D01*
X838922Y187741D01*
X839220Y187686D01*
X839473Y187518D01*
X841815Y185176D01*
X841978Y184935D01*
X842038Y184637D01*
X842038Y180682D01*
X845146Y177574D01*
X849542Y177574D01*
X852650Y180682D01*
X852650Y185078D01*
X849542Y188186D01*
X845587Y188186D01*
X845301Y188242D01*
X845048Y188409D01*
X785807Y247650D01*
X557983Y247650D01*
X557697Y247706D01*
X557445Y247873D01*
X557421Y247897D01*
X557268Y248117D01*
X557198Y248412D01*
X557249Y248711D01*
X557412Y248966D01*
X557662Y249138D01*
X557959Y249198D01*
X748775Y249198D01*
X764553Y264977D01*
X764795Y265140D01*
X765092Y265200D01*
X775493Y265200D01*
X775779Y265144D01*
X776031Y264977D01*
X777328Y263680D01*
X780240Y263680D01*
X780526Y263624D01*
X780779Y263457D01*
X794571Y249665D01*
X794734Y249423D01*
X794794Y249126D01*
X794794Y244690D01*
X797902Y241582D01*
X802298Y241582D01*
X805406Y244690D01*
X805406Y249086D01*
X802298Y252194D01*
X800910Y252194D01*
X800624Y252250D01*
X800371Y252417D01*
X785055Y267733D01*
X784892Y267975D01*
X784832Y268272D01*
X784832Y271184D01*
X782973Y273043D01*
X782820Y273263D01*
X782750Y273558D01*
X782801Y273857D01*
X782964Y274112D01*
X783214Y274284D01*
X783511Y274344D01*
X853396Y274344D01*
X853682Y274288D01*
X853935Y274121D01*
X894393Y233663D01*
X894556Y233421D01*
X894616Y233124D01*
X894616Y230212D01*
X897724Y227104D01*
X902120Y227104D01*
X905228Y230212D01*
X905228Y234608D01*
X902120Y237716D01*
X899208Y237716D01*
X898922Y237772D01*
X898669Y237939D01*
X868923Y267685D01*
X868770Y267905D01*
X868701Y268200D01*
X868751Y268499D01*
X868915Y268754D01*
X869165Y268926D01*
X869462Y268986D01*
X887531Y268986D01*
X887817Y268930D01*
X888069Y268763D01*
X890866Y265966D01*
X895262Y265966D01*
X898370Y269074D01*
X898370Y273470D01*
X895262Y276578D01*
X890866Y276578D01*
X888069Y273781D01*
X887828Y273618D01*
X887531Y273558D01*
X868419Y273558D01*
X868133Y273614D01*
X867880Y273781D01*
X835347Y306314D01*
X835184Y306555D01*
X835124Y306853D01*
X835124Y310808D01*
X832016Y313916D01*
X827620Y313916D01*
X824512Y310808D01*
X824512Y306412D01*
X827620Y303304D01*
X831575Y303304D01*
X831861Y303248D01*
X832114Y303081D01*
X853502Y281693D01*
X853655Y281473D01*
X853725Y281178D01*
X853674Y280879D01*
X853511Y280624D01*
X853261Y280452D01*
X852963Y280392D01*
X370376Y280392D01*
X370090Y280448D01*
X369837Y280615D01*
X338543Y311909D01*
X338390Y312129D01*
X338321Y312424D01*
X338371Y312723D01*
X338535Y312978D01*
X338785Y313150D01*
X339082Y313210D01*
X339764Y313210D01*
X342872Y316318D01*
X342872Y320714D01*
X340075Y323511D01*
X339912Y323752D01*
X339852Y324049D01*
X339852Y377753D01*
X339899Y378016D01*
X340058Y378274D01*
X340306Y378449D01*
X340602Y378514D01*
X340900Y378459D01*
X341153Y378291D01*
X341464Y377980D01*
X345860Y377980D01*
X348657Y380777D01*
X348898Y380940D01*
X349195Y381000D01*
X450905Y381000D01*
X451168Y380953D01*
X451426Y380794D01*
X451601Y380546D01*
X451666Y380250D01*
X451611Y379952D01*
X451443Y379699D01*
X451132Y379388D01*
X451132Y374992D01*
X453929Y372195D01*
X454092Y371954D01*
X454152Y371657D01*
X454152Y356815D01*
X454096Y356529D01*
X453929Y356277D01*
X451132Y353480D01*
X451132Y349084D01*
X454240Y345976D01*
X458636Y345976D01*
X461744Y349084D01*
X461744Y353480D01*
X458947Y356277D01*
X458784Y356518D01*
X458724Y356815D01*
X458724Y371657D01*
X458780Y371943D01*
X458947Y372195D01*
X461744Y374992D01*
X461744Y378714D01*
X461795Y378989D01*
X461959Y379244D01*
X462209Y379416D01*
X462506Y379476D01*
X468431Y379476D01*
X468717Y379420D01*
X468969Y379253D01*
X471766Y376456D01*
X475721Y376456D01*
X476007Y376400D01*
X476260Y376233D01*
X492057Y360436D01*
X492220Y360195D01*
X492280Y359897D01*
X492280Y355942D01*
X495388Y352834D01*
X499784Y352834D01*
X502892Y355942D01*
X502892Y356905D01*
X502939Y357169D01*
X503098Y357427D01*
X503346Y357602D01*
X503642Y357667D01*
X503940Y357612D01*
X504193Y357444D01*
X511879Y349758D01*
X628835Y349758D01*
X766534Y487457D01*
X766775Y487620D01*
X767073Y487680D01*
X1507799Y487680D01*
X1508085Y487624D01*
X1508337Y487457D01*
X1511134Y484660D01*
X1515530Y484660D01*
X1518638Y487768D01*
X1518638Y492164D01*
X1515530Y495272D01*
X1511134Y495272D01*
X1508337Y492475D01*
X1508096Y492312D01*
X1507799Y492252D01*
X764863Y492252D01*
X631447Y358836D01*
X631227Y358683D01*
X630932Y358613D01*
X630633Y358664D01*
X630378Y358827D01*
X630206Y359077D01*
X630146Y359375D01*
X630146Y360338D01*
X627349Y363135D01*
X627186Y363376D01*
X627126Y363673D01*
X627126Y501581D01*
X542739Y585968D01*
X542576Y586209D01*
X542516Y586507D01*
X542516Y587029D01*
X542563Y587293D01*
X542722Y587551D01*
X542970Y587726D01*
X543266Y587791D01*
X543564Y587736D01*
X543817Y587568D01*
X604843Y526542D01*
X896675Y526542D01*
X896938Y526495D01*
X897196Y526336D01*
X897371Y526088D01*
X897436Y525792D01*
X897381Y525494D01*
X897213Y525241D01*
X896902Y524930D01*
X896902Y520534D01*
X900010Y517426D01*
X904406Y517426D01*
X907203Y520223D01*
X907444Y520386D01*
X907741Y520446D01*
X1420169Y520446D01*
X1420455Y520390D01*
X1420707Y520223D01*
X1423504Y517426D01*
X1427900Y517426D01*
X1429585Y519111D01*
X1429815Y519269D01*
X1430111Y519334D01*
X1430409Y519278D01*
X1430662Y519111D01*
X1446853Y502920D01*
X1560075Y502920D01*
X1560361Y502864D01*
X1560614Y502697D01*
X1621313Y441998D01*
X1621476Y441757D01*
X1621536Y441459D01*
X1621536Y212035D01*
X1621480Y211749D01*
X1621313Y211497D01*
X1618516Y208700D01*
X1618516Y204745D01*
X1618460Y204459D01*
X1618293Y204206D01*
X1597924Y183837D01*
X1597683Y183674D01*
X1597385Y183614D01*
X1593430Y183614D01*
X1590322Y180506D01*
X1590322Y176110D01*
X1593430Y173002D01*
X1597826Y173002D01*
X1600934Y176110D01*
X1600934Y180065D01*
X1600990Y180351D01*
X1601157Y180604D01*
X1621526Y200973D01*
X1621767Y201136D01*
X1622065Y201196D01*
X1622587Y201196D01*
X1622851Y201149D01*
X1623109Y200990D01*
X1623284Y200742D01*
X1623349Y200446D01*
X1623294Y200148D01*
X1623126Y199895D01*
X1609344Y186113D01*
X1609344Y137359D01*
X1609288Y137073D01*
X1609121Y136821D01*
X1606324Y134024D01*
X1606324Y129628D01*
X1609121Y126831D01*
X1609284Y126590D01*
X1609344Y126293D01*
X1609344Y117547D01*
X1609288Y117261D01*
X1609121Y117009D01*
X1606324Y114212D01*
X1606324Y109816D01*
X1609432Y106708D01*
X1613828Y106708D01*
X1616936Y109816D01*
X1616936Y114212D01*
X1614139Y117009D01*
X1613976Y117250D01*
X1613916Y117547D01*
X1613916Y126293D01*
X1613972Y126579D01*
X1614139Y126831D01*
X1616936Y129628D01*
X1616936Y134024D01*
X1614139Y136821D01*
X1613976Y137062D01*
X1613916Y137359D01*
X1613916Y183903D01*
X1613972Y184189D01*
X1614139Y184442D01*
X1630670Y200973D01*
X1630911Y201136D01*
X1631209Y201196D01*
X1635164Y201196D01*
X1638272Y204304D01*
X1638272Y208700D01*
X1635164Y211808D01*
X1630768Y211808D01*
X1628933Y209973D01*
X1628702Y209815D01*
X1628406Y209750D01*
X1628108Y209805D01*
X1627855Y209973D01*
X1626331Y211497D01*
X1626168Y211738D01*
X1626108Y212035D01*
X1626108Y439935D01*
X1626155Y440199D01*
X1626314Y440457D01*
X1626562Y440632D01*
X1626858Y440697D01*
X1627156Y440642D01*
X1627409Y440474D01*
X1639629Y428254D01*
X1639792Y428013D01*
X1639852Y427715D01*
X1639852Y423760D01*
X1642960Y420652D01*
X1647356Y420652D01*
X1650464Y423760D01*
X1650464Y428156D01*
X1647356Y431264D01*
X1643401Y431264D01*
X1643115Y431320D01*
X1642862Y431487D01*
X1553903Y520446D01*
X1512007Y520446D01*
X1511721Y520502D01*
X1511469Y520669D01*
X1508672Y523466D01*
X1504276Y523466D01*
X1501479Y520669D01*
X1501238Y520506D01*
X1500941Y520446D01*
X1440681Y520446D01*
X1440395Y520502D01*
X1440142Y520669D01*
X1409885Y550926D01*
X899359Y550926D01*
X899096Y550973D01*
X898838Y551132D01*
X898663Y551380D01*
X898598Y551676D01*
X898653Y551974D01*
X898821Y552227D01*
X899132Y552538D01*
X899132Y556934D01*
X896335Y559731D01*
X896172Y559972D01*
X896112Y560269D01*
X896112Y582353D01*
X825431Y653034D01*
X212797Y653034D01*
X212511Y653090D01*
X212259Y653257D01*
X209462Y656054D01*
X205066Y656054D01*
X201958Y652946D01*
X201958Y651983D01*
X201911Y651719D01*
X201752Y651461D01*
X201504Y651286D01*
X201208Y651221D01*
X200910Y651276D01*
X200657Y651444D01*
X200601Y651500D01*
X200438Y651741D01*
X200378Y652039D01*
X200378Y652946D01*
X197270Y656054D01*
X192874Y656054D01*
X189766Y652946D01*
X189766Y648935D01*
X189719Y648671D01*
X189560Y648413D01*
X189312Y648238D01*
X189016Y648173D01*
X188718Y648228D01*
X188465Y648396D01*
X175194Y661667D01*
X175041Y661887D01*
X174971Y662182D01*
X175022Y662481D01*
X175185Y662736D01*
X175435Y662908D01*
X175733Y662968D01*
X176696Y662968D01*
X179804Y666076D01*
X179804Y670031D01*
X179860Y670317D01*
X180027Y670570D01*
X562346Y1052889D01*
X562587Y1053052D01*
X562885Y1053112D01*
X566840Y1053112D01*
X569948Y1056220D01*
X569948Y1060616D01*
X566840Y1063724D01*
X562444Y1063724D01*
X559336Y1060616D01*
X559336Y1056661D01*
X559280Y1056375D01*
X559113Y1056122D01*
X456949Y953958D01*
X456729Y953805D01*
X456434Y953735D01*
X456135Y953786D01*
X455880Y953949D01*
X455708Y954199D01*
X455648Y954497D01*
X455648Y955460D01*
X452540Y958568D01*
X448144Y958568D01*
X445347Y955771D01*
X445106Y955608D01*
X444809Y955548D01*
X261181Y955548D01*
X189487Y883854D01*
X189267Y883701D01*
X188972Y883631D01*
X188673Y883682D01*
X188418Y883845D01*
X188246Y884095D01*
X188186Y884393D01*
X188186Y884915D01*
X188242Y885201D01*
X188409Y885454D01*
X329908Y1026953D01*
X330149Y1027116D01*
X330447Y1027176D01*
X477575Y1027176D01*
X477861Y1027120D01*
X478113Y1026953D01*
X480910Y1024156D01*
X485306Y1024156D01*
X488414Y1027264D01*
X488414Y1031660D01*
X485306Y1034768D01*
X480910Y1034768D01*
X478113Y1031971D01*
X477872Y1031808D01*
X477575Y1031748D01*
X471115Y1031748D01*
X470852Y1031795D01*
X470594Y1031954D01*
X470419Y1032202D01*
X470354Y1032498D01*
X470409Y1032796D01*
X470577Y1033049D01*
X473174Y1035646D01*
X473174Y1040042D01*
X470066Y1043150D01*
X465670Y1043150D01*
X463611Y1041091D01*
X463370Y1040928D01*
X463073Y1040868D01*
X461054Y1040868D01*
X460768Y1040924D01*
X460515Y1041091D01*
X425567Y1076039D01*
X425414Y1076259D01*
X425345Y1076554D01*
X425395Y1076853D01*
X425559Y1077108D01*
X425809Y1077280D01*
X426106Y1077340D01*
X702518Y1077340D01*
X707171Y1079267D01*
X710733Y1082829D01*
X712660Y1087482D01*
X712660Y1101578D01*
X712711Y1101853D01*
X712875Y1102108D01*
X713125Y1102280D01*
X713422Y1102340D01*
X908578Y1102340D01*
X908853Y1102289D01*
X909108Y1102125D01*
X909280Y1101875D01*
X909340Y1101578D01*
X909340Y669482D01*
X911267Y664829D01*
X914829Y661267D01*
X919482Y659340D01*
X1691578Y659340D01*
X1691853Y659289D01*
X1692108Y659125D01*
X1692280Y658875D01*
X1692340Y658578D01*
X1692340Y13422D01*
X1692289Y13147D01*
X1692125Y12892D01*
X1691875Y12720D01*
X1691578Y12660D01*
X964422Y12660D01*
X964147Y12711D01*
X963892Y12875D01*
X963720Y13125D01*
X963660Y13422D01*
X963660Y102518D01*
X961733Y107171D01*
X958171Y110733D01*
X953518Y112660D01*
X766482Y112660D01*
X761829Y110733D01*
X758267Y107171D01*
X756340Y102518D01*
X756340Y13422D01*
X756289Y13147D01*
X756125Y12892D01*
X755875Y12720D01*
G37*
%LPC*%
G36*
X1645373Y557090D02*
X1650707Y557090D01*
X1655636Y559132D01*
X1659408Y562904D01*
X1661450Y567833D01*
X1661450Y573167D01*
X1659408Y578096D01*
X1655636Y581868D01*
X1650707Y583910D01*
X1645373Y583910D01*
X1640444Y581868D01*
X1636672Y578096D01*
X1634630Y573167D01*
X1634630Y567833D01*
X1636672Y562904D01*
X1640444Y559132D01*
X1645373Y557090D01*
G37*
G36*
X1603336Y496852D02*
X1607732Y496852D01*
X1610840Y499960D01*
X1610840Y504356D01*
X1608043Y507153D01*
X1607880Y507394D01*
X1607820Y507691D01*
X1607820Y532137D01*
X1607876Y532423D01*
X1608043Y532676D01*
X1623812Y548445D01*
X1624053Y548608D01*
X1624351Y548668D01*
X1628306Y548668D01*
X1631414Y551776D01*
X1631414Y556172D01*
X1628306Y559280D01*
X1623910Y559280D01*
X1620802Y556172D01*
X1620802Y552217D01*
X1620746Y551931D01*
X1620579Y551678D01*
X1603248Y534347D01*
X1603248Y507691D01*
X1603192Y507405D01*
X1603025Y507153D01*
X1600228Y504356D01*
X1600228Y499960D01*
X1603336Y496852D01*
G37*
G36*
X1645373Y499290D02*
X1650707Y499290D01*
X1655636Y501332D01*
X1659408Y505104D01*
X1661450Y510033D01*
X1661450Y515367D01*
X1659408Y520296D01*
X1655636Y524068D01*
X1650707Y526110D01*
X1645373Y526110D01*
X1640444Y524068D01*
X1636672Y520296D01*
X1634630Y515367D01*
X1634630Y510033D01*
X1636672Y505104D01*
X1640444Y501332D01*
X1645373Y499290D01*
G37*
G36*
X1540852Y426748D02*
X1545248Y426748D01*
X1548356Y429856D01*
X1548356Y434252D01*
X1546297Y436311D01*
X1546134Y436552D01*
X1546074Y436849D01*
X1546074Y476789D01*
X1546130Y477075D01*
X1546297Y477327D01*
X1548356Y479386D01*
X1548356Y483782D01*
X1545248Y486890D01*
X1540852Y486890D01*
X1537744Y483782D01*
X1537744Y479386D01*
X1539803Y477327D01*
X1539966Y477086D01*
X1540026Y476789D01*
X1540026Y436849D01*
X1539970Y436563D01*
X1539803Y436311D01*
X1537744Y434252D01*
X1537744Y429856D01*
X1540852Y426748D01*
G37*
G36*
X845146Y160048D02*
X849542Y160048D01*
X852650Y163156D01*
X852650Y166068D01*
X852706Y166354D01*
X852873Y166607D01*
X879619Y193353D01*
X879861Y193516D01*
X880158Y193576D01*
X883070Y193576D01*
X886178Y196684D01*
X886178Y201080D01*
X883070Y204188D01*
X878674Y204188D01*
X875566Y201080D01*
X875566Y198168D01*
X875510Y197882D01*
X875343Y197629D01*
X873029Y195315D01*
X872798Y195157D01*
X872502Y195092D01*
X872204Y195148D01*
X871951Y195315D01*
X831537Y235729D01*
X831374Y235971D01*
X831314Y236268D01*
X831314Y239180D01*
X828206Y242288D01*
X823810Y242288D01*
X820702Y239180D01*
X820702Y234784D01*
X823810Y231676D01*
X826722Y231676D01*
X827008Y231620D01*
X827261Y231453D01*
X867675Y191039D01*
X867833Y190808D01*
X867898Y190512D01*
X867842Y190214D01*
X867675Y189961D01*
X848597Y170883D01*
X848355Y170720D01*
X848058Y170660D01*
X845146Y170660D01*
X842038Y167552D01*
X842038Y163156D01*
X845146Y160048D01*
G37*
G36*
X278980Y119662D02*
X283376Y119662D01*
X286173Y122459D01*
X286414Y122622D01*
X286711Y122682D01*
X794567Y122682D01*
X794853Y122626D01*
X795105Y122459D01*
X797902Y119662D01*
X802298Y119662D01*
X805406Y122770D01*
X805406Y127166D01*
X805095Y127477D01*
X804942Y127697D01*
X804872Y127992D01*
X804923Y128291D01*
X805086Y128546D01*
X805336Y128718D01*
X805633Y128778D01*
X899345Y128778D01*
X902198Y131631D01*
X902439Y131794D01*
X902737Y131854D01*
X906692Y131854D01*
X909800Y134962D01*
X909800Y139358D01*
X906692Y142466D01*
X902296Y142466D01*
X900461Y140631D01*
X900230Y140473D01*
X899934Y140408D01*
X899636Y140463D01*
X899383Y140631D01*
X897548Y142466D01*
X893152Y142466D01*
X890355Y139669D01*
X890114Y139506D01*
X889817Y139446D01*
X746959Y139446D01*
X746673Y139502D01*
X746421Y139669D01*
X743624Y142466D01*
X739228Y142466D01*
X736120Y139358D01*
X736120Y138395D01*
X736073Y138131D01*
X735914Y137873D01*
X735666Y137698D01*
X735370Y137633D01*
X735072Y137688D01*
X734819Y137856D01*
X727143Y145532D01*
X726980Y145773D01*
X726920Y146071D01*
X726920Y150026D01*
X723812Y153134D01*
X719416Y153134D01*
X716308Y150026D01*
X716308Y145630D01*
X719416Y142522D01*
X723371Y142522D01*
X723657Y142466D01*
X723910Y142299D01*
X737654Y128555D01*
X737807Y128335D01*
X737877Y128040D01*
X737826Y127741D01*
X737663Y127486D01*
X737413Y127314D01*
X737115Y127254D01*
X286711Y127254D01*
X286425Y127310D01*
X286173Y127477D01*
X283376Y130274D01*
X278980Y130274D01*
X275872Y127166D01*
X275872Y122770D01*
X278980Y119662D01*
G37*
%LPD*%
G36*
X135710Y438186D02*
X135413Y438126D01*
X134084Y438126D01*
X133809Y438177D01*
X133554Y438341D01*
X133382Y438591D01*
X133322Y438888D01*
X133322Y441431D01*
X133378Y441717D01*
X133545Y441970D01*
X174498Y482923D01*
X174498Y518723D01*
X174554Y519009D01*
X174721Y519261D01*
X177518Y522058D01*
X177518Y526454D01*
X174410Y529562D01*
X170014Y529562D01*
X166906Y526454D01*
X166906Y522058D01*
X169703Y519261D01*
X169866Y519020D01*
X169926Y518723D01*
X169926Y485133D01*
X169870Y484847D01*
X169703Y484594D01*
X130312Y445203D01*
X130071Y445040D01*
X129773Y444980D01*
X126203Y444980D01*
X125939Y445027D01*
X125681Y445186D01*
X125506Y445434D01*
X125441Y445730D01*
X125496Y446028D01*
X125664Y446281D01*
X144780Y465397D01*
X144780Y480245D01*
X111475Y513550D01*
X111312Y513791D01*
X111252Y514089D01*
X111252Y523295D01*
X111308Y523581D01*
X111475Y523833D01*
X114272Y526630D01*
X114272Y531026D01*
X111164Y534134D01*
X106768Y534134D01*
X106457Y533823D01*
X106237Y533670D01*
X105942Y533600D01*
X105643Y533651D01*
X105388Y533814D01*
X105216Y534064D01*
X105156Y534361D01*
X105156Y645442D01*
X105207Y645717D01*
X105371Y645972D01*
X105621Y646144D01*
X105918Y646204D01*
X107354Y646204D01*
X110462Y649312D01*
X110462Y650275D01*
X110509Y650539D01*
X110668Y650797D01*
X110916Y650972D01*
X111212Y651037D01*
X111510Y650982D01*
X111763Y650814D01*
X188019Y574558D01*
X188182Y574317D01*
X188242Y574019D01*
X188242Y570064D01*
X191350Y566956D01*
X195746Y566956D01*
X198854Y570064D01*
X198854Y574460D01*
X195746Y577568D01*
X191791Y577568D01*
X191505Y577624D01*
X191252Y577791D01*
X111475Y657568D01*
X111312Y657809D01*
X111252Y658107D01*
X111252Y814839D01*
X111308Y815125D01*
X111475Y815378D01*
X125219Y829122D01*
X125439Y829275D01*
X125734Y829345D01*
X126033Y829294D01*
X126288Y829131D01*
X126460Y828881D01*
X126520Y828583D01*
X126520Y827620D01*
X129317Y824823D01*
X129480Y824582D01*
X129540Y824285D01*
X129540Y700855D01*
X295471Y534924D01*
X295684Y534924D01*
X295959Y534873D01*
X296214Y534709D01*
X296386Y534459D01*
X296424Y534273D01*
X299554Y531142D01*
X303950Y531142D01*
X307058Y534250D01*
X307058Y538205D01*
X307114Y538491D01*
X307281Y538744D01*
X323050Y554513D01*
X323291Y554676D01*
X323589Y554736D01*
X408233Y554736D01*
X408519Y554680D01*
X408771Y554513D01*
X411568Y551716D01*
X412531Y551716D01*
X412795Y551669D01*
X413053Y551510D01*
X413228Y551262D01*
X413293Y550966D01*
X413238Y550668D01*
X413070Y550415D01*
X351320Y488665D01*
X351079Y488502D01*
X350781Y488442D01*
X295093Y488442D01*
X294807Y488498D01*
X294555Y488665D01*
X291758Y491462D01*
X287362Y491462D01*
X287027Y491127D01*
X286807Y490974D01*
X286512Y490904D01*
X286213Y490955D01*
X285958Y491118D01*
X285786Y491368D01*
X285726Y491665D01*
X285726Y514841D01*
X277859Y522708D01*
X275126Y522708D01*
X274840Y522764D01*
X274587Y522931D01*
X226513Y571005D01*
X226350Y571247D01*
X226290Y571544D01*
X226290Y573563D01*
X226346Y573849D01*
X226513Y574101D01*
X228572Y576160D01*
X228572Y580556D01*
X225464Y583664D01*
X221068Y583664D01*
X217960Y580556D01*
X217960Y576160D01*
X220019Y574101D01*
X220182Y573860D01*
X220242Y573563D01*
X220242Y572258D01*
X220195Y571995D01*
X220036Y571737D01*
X219788Y571561D01*
X219492Y571496D01*
X219194Y571552D01*
X218941Y571719D01*
X215979Y574682D01*
X215821Y574912D01*
X215756Y575208D01*
X215812Y575506D01*
X215979Y575759D01*
X216380Y576160D01*
X216380Y580556D01*
X213272Y583664D01*
X208876Y583664D01*
X205768Y580556D01*
X205768Y576160D01*
X208909Y573019D01*
X209026Y572996D01*
X209279Y572829D01*
X210045Y572063D01*
X268272Y513835D01*
X268430Y513605D01*
X268495Y513309D01*
X268440Y513011D01*
X268272Y512758D01*
X265966Y510452D01*
X265966Y507540D01*
X265910Y507254D01*
X265743Y507001D01*
X251971Y493229D01*
X251751Y493076D01*
X251456Y493007D01*
X251157Y493057D01*
X250902Y493221D01*
X250730Y493471D01*
X250670Y493768D01*
X250670Y494450D01*
X247562Y497558D01*
X243166Y497558D01*
X240369Y494761D01*
X240128Y494598D01*
X239831Y494538D01*
X204415Y494538D01*
X204129Y494594D01*
X203877Y494761D01*
X201080Y497558D01*
X196684Y497558D01*
X193576Y494450D01*
X193576Y490054D01*
X196684Y486946D01*
X201080Y486946D01*
X203877Y489743D01*
X204118Y489906D01*
X204415Y489966D01*
X239831Y489966D01*
X240117Y489910D01*
X240369Y489743D01*
X243166Y486946D01*
X243848Y486946D01*
X244111Y486899D01*
X244369Y486740D01*
X244545Y486492D01*
X244610Y486196D01*
X244554Y485898D01*
X244387Y485645D01*
X197853Y439111D01*
X197611Y438948D01*
X197314Y438888D01*
X144241Y438888D01*
X143955Y438944D01*
X143703Y439111D01*
X142406Y440408D01*
X138010Y440408D01*
X135951Y438349D01*
X135710Y438186D01*
G37*
%LPC*%
G36*
X227926Y505996D02*
X232322Y505996D01*
X235430Y509104D01*
X235430Y513059D01*
X235486Y513345D01*
X235653Y513598D01*
X240782Y518727D01*
X241023Y518890D01*
X241321Y518950D01*
X245276Y518950D01*
X248384Y522058D01*
X248384Y526454D01*
X245276Y529562D01*
X240880Y529562D01*
X237772Y526454D01*
X237772Y522499D01*
X237716Y522213D01*
X237549Y521960D01*
X232420Y516831D01*
X232179Y516668D01*
X231881Y516608D01*
X227926Y516608D01*
X224818Y513500D01*
X224818Y509104D01*
X227926Y505996D01*
G37*
%LPD*%
G36*
X331806Y319335D02*
X331510Y319270D01*
X331212Y319326D01*
X330959Y319493D01*
X285949Y364503D01*
X285786Y364745D01*
X285726Y365042D01*
X285726Y480647D01*
X285773Y480910D01*
X285932Y481168D01*
X286180Y481343D01*
X286476Y481408D01*
X286774Y481353D01*
X287027Y481185D01*
X287362Y480850D01*
X291758Y480850D01*
X294555Y483647D01*
X294796Y483810D01*
X295093Y483870D01*
X352991Y483870D01*
X422399Y553278D01*
X422619Y553431D01*
X422914Y553501D01*
X423213Y553450D01*
X423468Y553287D01*
X423640Y553037D01*
X423700Y552739D01*
X423700Y551776D01*
X426808Y548668D01*
X431204Y548668D01*
X434312Y551776D01*
X434312Y555731D01*
X434368Y556017D01*
X434535Y556270D01*
X454142Y575877D01*
X454383Y576040D01*
X454681Y576100D01*
X458636Y576100D01*
X461744Y579208D01*
X461744Y583604D01*
X458636Y586712D01*
X457673Y586712D01*
X457409Y586759D01*
X457151Y586918D01*
X456976Y587166D01*
X456911Y587462D01*
X456966Y587760D01*
X457134Y588013D01*
X460972Y591851D01*
X461213Y592014D01*
X461511Y592074D01*
X531677Y592074D01*
X531940Y592027D01*
X532198Y591868D01*
X532373Y591620D01*
X532438Y591324D01*
X532383Y591026D01*
X532215Y590773D01*
X531904Y590462D01*
X531904Y586066D01*
X535012Y582958D01*
X538967Y582958D01*
X539253Y582902D01*
X539506Y582735D01*
X622331Y499910D01*
X622494Y499669D01*
X622554Y499371D01*
X622554Y363673D01*
X622498Y363387D01*
X622331Y363135D01*
X619534Y360338D01*
X619534Y355942D01*
X619845Y355631D01*
X619998Y355411D01*
X620068Y355116D01*
X620017Y354817D01*
X619854Y354562D01*
X619604Y354390D01*
X619307Y354330D01*
X514089Y354330D01*
X513803Y354386D01*
X513550Y354553D01*
X473387Y394716D01*
X349195Y394716D01*
X348909Y394772D01*
X348657Y394939D01*
X345860Y397736D01*
X341464Y397736D01*
X341153Y397425D01*
X340933Y397272D01*
X340638Y397202D01*
X340339Y397253D01*
X340084Y397416D01*
X339912Y397666D01*
X339852Y397963D01*
X339852Y441761D01*
X339908Y442047D01*
X340075Y442299D01*
X342872Y445096D01*
X342872Y449051D01*
X342928Y449337D01*
X343095Y449590D01*
X444236Y550731D01*
X444477Y550894D01*
X444775Y550954D01*
X448730Y550954D01*
X451838Y554062D01*
X451838Y558458D01*
X448730Y561566D01*
X444334Y561566D01*
X441226Y558458D01*
X441226Y554503D01*
X441170Y554217D01*
X441003Y553964D01*
X339862Y452823D01*
X339621Y452660D01*
X339323Y452600D01*
X335368Y452600D01*
X332260Y449492D01*
X332260Y445096D01*
X335057Y442299D01*
X335220Y442058D01*
X335280Y441761D01*
X335280Y324049D01*
X335224Y323763D01*
X335057Y323511D01*
X332260Y320714D01*
X332260Y320032D01*
X332213Y319769D01*
X332054Y319511D01*
X331806Y319335D01*
G37*
D10*
X490728Y1038606D02*
X490728Y1051560D01*
X455676Y1051560D01*
X490728Y1051560D02*
X490728Y1052322D01*
X348996Y538734D02*
X335280Y538734D01*
X313182Y538734D01*
X304800Y530352D01*
X272796Y530352D01*
X843534Y143256D02*
X880872Y143256D01*
X909066Y171450D02*
X909066Y304038D01*
X909066Y171450D02*
X880872Y143256D01*
X784098Y196596D02*
X779526Y196596D01*
X809625Y171069D02*
X837438Y143256D01*
X809625Y171069D02*
X784098Y196596D01*
X837438Y143256D02*
X843534Y143256D01*
X897636Y315468D02*
X897636Y393954D01*
X897636Y315468D02*
X909066Y304038D01*
X809625Y171069D02*
X781812Y143256D01*
X1587246Y99822D02*
X1603248Y99822D01*
X1561338Y476250D02*
X1561338Y496062D01*
X1558290Y499110D02*
X1513332Y499110D01*
X1558290Y499110D02*
X1561338Y496062D01*
X1208532Y393954D02*
X897636Y393954D01*
X618744Y418338D02*
X490728Y418338D01*
D11*
X490728Y1052322D03*
X490728Y1038606D03*
X455676Y1051560D03*
X335280Y538734D03*
X348996Y538734D03*
X272796Y530352D03*
X843534Y143256D03*
X880872Y143256D03*
X909066Y304038D03*
X779526Y196596D03*
X897636Y393954D03*
X781812Y143256D03*
X1603248Y99822D03*
X1587246Y99822D03*
X1561338Y496062D03*
X1561338Y476250D03*
X1513332Y499110D03*
X1208532Y393954D03*
X490728Y418338D03*
X618744Y418338D03*
D12*
X1543050Y432054D02*
X1543050Y481584D01*
D11*
X1543050Y432054D03*
X1543050Y481584D03*
D10*
X1605534Y502158D02*
X1605534Y533400D01*
X1626108Y553974D01*
D11*
X1605534Y502158D03*
X1626108Y553974D03*
D10*
X1513332Y489966D02*
X765810Y489966D01*
X627888Y352044D01*
X512826Y352044D01*
X472440Y392430D01*
X343662Y392430D01*
D11*
X1513332Y489966D03*
X343662Y392430D03*
D10*
X605790Y528828D02*
X1403604Y528828D01*
X605790Y528828D02*
X540258Y594360D01*
X460248Y594360D01*
X352044Y486156D01*
X289560Y486156D01*
D11*
X1403604Y528828D03*
X289560Y486156D03*
D12*
X282702Y1066800D02*
X198882Y1066800D01*
X282702Y1066800D02*
X289560Y1073658D01*
X423672Y1073658D01*
X459486Y1037844D01*
X467868Y1037844D01*
X140208Y435102D02*
X133350Y435102D01*
X131064Y432816D01*
X112776Y432816D01*
X96774Y448818D01*
X140970Y435864D02*
X198882Y435864D01*
X271272Y508254D01*
X140970Y435864D02*
X140208Y435102D01*
X411480Y592074D02*
X442722Y623316D01*
D11*
X198882Y1066800D03*
X467868Y1037844D03*
X140208Y435102D03*
X96774Y448818D03*
X271272Y508254D03*
X442722Y623316D03*
X411480Y592074D03*
D10*
X473964Y381762D02*
X497586Y358140D01*
X96774Y512064D02*
X96774Y641604D01*
X73914Y664464D01*
X73914Y873252D01*
X461010Y381762D02*
X473964Y381762D01*
X461010Y381762D02*
X459486Y383286D01*
X343662Y383286D01*
X217170Y383286D02*
X164592Y383286D01*
X121920Y425958D01*
D11*
X497586Y358140D03*
X473964Y381762D03*
X96774Y512064D03*
X73914Y873252D03*
X343662Y383286D03*
X217170Y383286D03*
X121920Y425958D03*
D10*
X808482Y176784D02*
X832866Y176784D01*
X808482Y176784D02*
X774954Y210312D01*
X751332Y210312D01*
X413766Y557022D02*
X322326Y557022D01*
X301752Y536448D01*
X131826Y701802D02*
X131826Y829818D01*
X131826Y701802D02*
X296418Y537210D01*
X301752Y537210D01*
X301752Y536448D01*
X457200Y600456D02*
X524256Y600456D01*
X457200Y600456D02*
X413766Y557022D01*
X624840Y500634D02*
X624840Y358140D01*
X624840Y500634D02*
X537210Y588264D01*
D11*
X832866Y176784D03*
X751332Y210312D03*
X413766Y557022D03*
X301752Y536448D03*
X131826Y829818D03*
X524256Y600456D03*
X624840Y358140D03*
X537210Y588264D03*
D10*
X456438Y581406D02*
X429006Y553974D01*
X784860Y245364D02*
X847344Y182880D01*
X784860Y245364D02*
X552450Y245364D01*
X48768Y680466D02*
X48768Y806196D01*
X48768Y680466D02*
X90678Y638556D01*
X90678Y499872D01*
X114300Y476250D01*
X136398Y476250D01*
X456438Y377190D02*
X456438Y351282D01*
D11*
X456438Y581406D03*
X429006Y553974D03*
X847344Y182880D03*
X552450Y245364D03*
X48768Y806196D03*
X136398Y476250D03*
X456438Y377190D03*
X456438Y351282D03*
D10*
X108585Y657225D02*
X108204Y657606D01*
X108585Y657225D02*
X193548Y572262D01*
X108204Y657606D02*
X102108Y657606D01*
X96012Y651510D01*
X91821Y965073D02*
X95250Y968502D01*
X91821Y965073D02*
X80010Y953262D01*
X262128Y953262D02*
X450342Y953262D01*
X262128Y953262D02*
X185928Y877062D01*
X179832Y877062D01*
X174879Y882015D02*
X91821Y965073D01*
X174879Y882015D02*
X179832Y877062D01*
X108966Y816102D02*
X108966Y657606D01*
X108966Y816102D02*
X174879Y882015D01*
X108966Y657606D02*
X108585Y657225D01*
D11*
X193548Y572262D03*
X96012Y651510D03*
X80010Y953262D03*
X95250Y968502D03*
X450342Y953262D03*
D10*
X564642Y1058418D02*
X174498Y668274D01*
D11*
X174498Y668274D03*
X564642Y1058418D03*
D12*
X223266Y578358D02*
X223266Y569976D01*
X273558Y519684D01*
X276606Y519684D01*
X282702Y513588D01*
X282702Y363474D01*
X368808Y277368D01*
X854964Y277368D01*
X899922Y232410D01*
D11*
X223266Y578358D03*
X899922Y232410D03*
D12*
X800100Y246888D02*
X800100Y248412D01*
X779526Y268986D01*
X211074Y575310D02*
X211074Y578358D01*
X211074Y575310D02*
X271272Y515112D01*
X274320Y515112D01*
X278130Y511302D01*
X278130Y283464D01*
X244602Y249936D01*
X763524Y268224D02*
X778764Y268224D01*
X763524Y268224D02*
X747522Y252222D01*
X309372Y252222D01*
X278130Y283464D01*
X778764Y268224D02*
X779526Y268986D01*
D11*
X800100Y246888D03*
X779526Y268986D03*
X211074Y578358D03*
X244602Y249936D03*
D10*
X1425702Y522732D02*
X1430274Y522732D01*
X1447800Y505206D01*
X1561338Y505206D01*
X1623822Y442722D01*
X1623822Y206502D01*
X1595628Y178308D01*
X824484Y650748D02*
X207264Y650748D01*
X824484Y650748D02*
X893826Y581406D01*
X893826Y554736D01*
X902208Y522732D02*
X1425702Y522732D01*
D11*
X1425702Y522732D03*
X1623822Y206502D03*
X1595628Y178308D03*
X207264Y650748D03*
X893826Y554736D03*
X902208Y522732D03*
D10*
X1611630Y131826D02*
X1611630Y112014D01*
X1552956Y518160D02*
X1506474Y518160D01*
X1552956Y518160D02*
X1645158Y425958D01*
X1611630Y185166D02*
X1611630Y131826D01*
X1611630Y185166D02*
X1632966Y206502D01*
X198120Y650748D02*
X195072Y650748D01*
X198120Y650748D02*
X209550Y639318D01*
X816102Y639318D01*
X887730Y567690D01*
X1439418Y518160D02*
X1506474Y518160D01*
X1439418Y518160D02*
X1408938Y548640D01*
X890778Y548640D01*
X887730Y551688D01*
X887730Y567690D01*
D11*
X1611630Y112014D03*
X1611630Y131826D03*
X1506474Y518160D03*
X1645158Y425958D03*
X1632966Y206502D03*
X195072Y650748D03*
X887730Y567690D03*
D10*
X800100Y124968D02*
X281178Y124968D01*
X172212Y483870D02*
X172212Y524256D01*
X172212Y483870D02*
X128016Y439674D01*
D11*
X800100Y124968D03*
X281178Y124968D03*
X172212Y524256D03*
X128016Y439674D03*
D10*
X329946Y1029462D02*
X483108Y1029462D01*
X329565Y1029843D02*
X292608Y1066800D01*
X329565Y1029843D02*
X329946Y1029462D01*
X108204Y509016D02*
X108204Y491490D01*
X108204Y509016D02*
X102870Y514350D01*
X102870Y649224D01*
X105156Y651510D01*
X182880Y883158D02*
X329565Y1029843D01*
D11*
X483108Y1029462D03*
X292608Y1066800D03*
X108204Y491490D03*
X105156Y651510D03*
X182880Y883158D03*
D10*
X868680Y597408D02*
X880872Y585216D01*
X245364Y492252D02*
X198882Y492252D01*
X337566Y447294D02*
X337566Y318516D01*
X337566Y447294D02*
X446532Y556260D01*
D11*
X880872Y585216D03*
X868680Y597408D03*
X198882Y492252D03*
X245364Y492252D03*
X337566Y447294D03*
X337566Y318516D03*
X446532Y556260D03*
D10*
X243078Y524256D02*
X230124Y511302D01*
X301752Y545592D02*
X306324Y545592D01*
X393954Y633222D01*
X813054Y633222D01*
D11*
X230124Y511302D03*
X243078Y524256D03*
X301752Y545592D03*
X813054Y633222D03*
D10*
X108966Y528828D02*
X108966Y512826D01*
X142494Y479298D01*
X142494Y466344D01*
X115824Y439674D01*
D11*
X108966Y528828D03*
X115824Y439674D03*
D10*
X801624Y188214D02*
X832866Y188214D01*
X801624Y188214D02*
X773430Y216408D01*
X163068Y216408D01*
D11*
X832866Y188214D03*
X163068Y216408D03*
D12*
X847344Y165354D02*
X872490Y190500D01*
X880872Y198882D01*
X872490Y190500D02*
X826008Y236982D01*
D11*
X880872Y198882D03*
X847344Y165354D03*
X826008Y236982D03*
D10*
X744474Y259080D02*
X714756Y259080D01*
X744474Y259080D02*
X755904Y270510D01*
X867156Y271272D02*
X893064Y271272D01*
X867156Y271272D02*
X829818Y308610D01*
D11*
X714756Y259080D03*
X755904Y270510D03*
X893064Y271272D03*
X829818Y308610D03*
D10*
X904494Y137160D02*
X898398Y131064D01*
X738378Y131064D01*
X721614Y147828D01*
D11*
X904494Y137160D03*
X721614Y147828D03*
D10*
X741426Y137160D02*
X895350Y137160D01*
D11*
X895350Y137160D03*
X741426Y137160D03*
M02*
