G04 EAGLE Gerber RS-274X export*
G75*
%MOMM*%
%FSLAX34Y34*%
%LPD*%
%INSoldermask Top*%
%IPPOS*%
%AMOC8*
5,1,8,0,0,1.08239X$1,22.5*%
G01*
G04 Define Apertures*
%ADD10R,1.603200X1.253200*%
%ADD11R,1.103200X0.903200*%
%ADD12R,1.603200X1.603200*%
%ADD13R,0.903200X1.103200*%
%ADD14R,2.403200X2.203200*%
%ADD15R,1.003200X1.003200*%
%ADD16R,1.403200X0.803200*%
%ADD17R,1.143200X1.173200*%
%ADD18R,1.173200X1.143200*%
%ADD19R,1.103200X1.003200*%
%ADD20R,1.353200X1.003200*%
%ADD21R,1.003200X1.103200*%
%ADD22R,1.103200X0.803200*%
%ADD23R,0.503200X1.003200*%
%ADD24R,0.603200X1.003200*%
%ADD25R,1.353200X0.503200*%
%ADD26R,2.203200X2.383200*%
%ADD27C,0.853200*%
%ADD28R,2.203200X1.403200*%
%ADD29R,1.553200X0.803200*%
%ADD30R,1.403200X2.003200*%
%ADD31R,2.103200X1.603200*%
%ADD32R,1.703200X0.903200*%
%ADD33R,0.330200X0.330200*%
%ADD34R,1.403200X0.753200*%
%ADD35R,1.703200X3.803200*%
%ADD36R,0.703200X1.253200*%
%ADD37C,0.330503*%
%ADD38R,0.152400X1.828800*%
%ADD39R,1.371600X1.803400*%
%ADD40C,2.203200*%
%ADD41C,0.315166*%
%ADD42R,3.603200X4.503200*%
%ADD43R,1.103200X1.703200*%
%ADD44C,0.349006*%
%ADD45C,0.269722*%
%ADD46R,1.103200X1.503200*%
D10*
X503200Y1072090D03*
X468200Y1072090D03*
X468200Y1057090D03*
X503200Y1057090D03*
D11*
X1586852Y60900D03*
X1586852Y73900D03*
X671876Y1073840D03*
X671876Y1060840D03*
D12*
X952300Y537800D03*
X952300Y559800D03*
D13*
X1232500Y497924D03*
X1245500Y497924D03*
X1254200Y375800D03*
X1241200Y375800D03*
D11*
X1356100Y397976D03*
X1356100Y410976D03*
X1573700Y60900D03*
X1573700Y73900D03*
X1350100Y500900D03*
X1350100Y513900D03*
D14*
X1325300Y387900D03*
X1325300Y417900D03*
D11*
X752800Y248500D03*
X752800Y261500D03*
X1570100Y510100D03*
X1570100Y523100D03*
X282900Y1073840D03*
X282900Y1060840D03*
X1501200Y490100D03*
X1501200Y503100D03*
X453324Y1073840D03*
X453324Y1060840D03*
X940100Y311700D03*
X940100Y324700D03*
D13*
X892500Y498200D03*
X879500Y498200D03*
D11*
X119800Y991700D03*
X119800Y1004700D03*
D10*
X655400Y1072090D03*
X620400Y1072090D03*
X620400Y1057090D03*
X655400Y1057090D03*
D15*
X1278700Y497500D03*
X1263700Y497500D03*
D11*
X514100Y1019300D03*
X514100Y1032300D03*
D16*
X1524700Y509300D03*
X1524700Y499800D03*
X1524700Y490300D03*
X1549700Y490300D03*
X1549700Y499800D03*
X1549700Y509300D03*
D17*
X440900Y393100D03*
X440900Y408100D03*
D18*
X747200Y220600D03*
X762200Y220600D03*
X141000Y980600D03*
X156000Y980600D03*
D19*
X1237100Y398200D03*
X1237100Y419200D03*
D20*
X919800Y310600D03*
X884800Y310600D03*
X838200Y340600D03*
X803200Y340600D03*
X881600Y270600D03*
X916600Y270600D03*
D17*
X489500Y393100D03*
X489500Y408100D03*
D21*
X873100Y658700D03*
X894100Y658700D03*
D17*
X473300Y393100D03*
X473300Y408100D03*
X327100Y503100D03*
X327100Y518100D03*
D11*
X922300Y210100D03*
X922300Y223100D03*
X792500Y209300D03*
X792500Y222300D03*
X721976Y179300D03*
X721976Y192300D03*
X710900Y179300D03*
X710900Y192300D03*
X901776Y210100D03*
X901776Y223100D03*
X881200Y208500D03*
X881200Y221500D03*
X866124Y210100D03*
X866124Y223100D03*
X845600Y210100D03*
X845600Y223100D03*
X826800Y210900D03*
X826800Y223900D03*
X807900Y210900D03*
X807900Y223900D03*
D22*
X1265300Y419300D03*
X1265300Y409800D03*
X1265300Y400300D03*
X1293300Y400300D03*
X1293300Y419300D03*
X472900Y1029300D03*
X472900Y1019800D03*
X472900Y1010300D03*
X500900Y1010300D03*
X500900Y1029300D03*
D23*
X917600Y153300D03*
X912600Y153300D03*
X907600Y153300D03*
X902600Y153300D03*
X897600Y153300D03*
X892600Y153300D03*
X887600Y153300D03*
X882600Y153300D03*
X877600Y153300D03*
X872600Y153300D03*
X867600Y153300D03*
X862600Y153300D03*
X857600Y153300D03*
X852600Y153300D03*
X847600Y153300D03*
X842600Y153300D03*
X837600Y153300D03*
X832600Y153300D03*
X827600Y153300D03*
X822600Y153300D03*
X817600Y153300D03*
X812600Y153300D03*
X807600Y153300D03*
X802600Y153300D03*
D24*
X927600Y128300D03*
X792600Y128300D03*
D25*
X1637290Y508100D03*
X1637290Y516100D03*
X1637290Y529100D03*
X1637290Y539100D03*
X1637290Y544100D03*
X1637290Y554100D03*
X1637290Y567100D03*
X1637290Y575100D03*
X1637290Y572100D03*
X1637290Y564100D03*
X1637290Y559100D03*
X1637290Y549100D03*
X1637290Y534100D03*
X1637290Y524100D03*
X1637290Y519100D03*
X1637290Y511100D03*
D26*
X1682340Y490500D03*
X1682340Y592700D03*
X1643040Y490500D03*
X1643040Y592700D03*
D27*
X1648040Y512700D03*
X1648040Y570500D03*
D28*
X1682340Y165200D03*
X1682340Y221200D03*
D29*
X1645590Y178200D03*
X1645590Y188200D03*
X1645590Y198200D03*
X1645590Y208200D03*
D30*
X164660Y853500D03*
X164660Y910500D03*
D31*
X22160Y823500D03*
X32160Y955000D03*
D32*
X60660Y871500D03*
X64660Y882500D03*
X60660Y893500D03*
X58660Y904500D03*
X60660Y915500D03*
X58660Y926500D03*
X60660Y937500D03*
X60660Y948500D03*
D30*
X164660Y882000D03*
X164660Y939000D03*
D33*
X824700Y313360D03*
X824700Y267640D03*
D34*
X1321801Y479300D03*
X1321801Y488800D03*
X1321801Y498300D03*
X1295799Y498300D03*
X1295799Y479300D03*
D35*
X1511600Y418800D03*
X1556600Y418800D03*
D21*
X1370900Y465600D03*
X1389900Y465600D03*
X1380400Y486600D03*
D19*
X769600Y263624D03*
X769600Y244624D03*
X790600Y254124D03*
D36*
X677600Y158200D03*
X690600Y158200D03*
X684100Y179200D03*
D11*
X194900Y435500D03*
X194900Y422500D03*
X1607900Y60100D03*
X1607900Y73100D03*
X928000Y538500D03*
X928000Y551500D03*
X488500Y351700D03*
X488500Y364700D03*
D13*
X1264700Y477924D03*
X1277700Y477924D03*
D11*
X1218700Y398500D03*
X1218700Y411500D03*
X694100Y82500D03*
X694100Y95500D03*
X1597376Y60100D03*
X1597376Y73100D03*
X926400Y618500D03*
X926400Y631500D03*
D13*
X1538000Y465800D03*
X1551000Y465800D03*
X1536400Y445800D03*
X1549400Y445800D03*
D11*
X1292300Y450900D03*
X1292300Y463900D03*
D13*
X652800Y98200D03*
X665800Y98200D03*
X711200Y158200D03*
X724200Y158200D03*
D11*
X306900Y501700D03*
X306900Y514700D03*
X446100Y351700D03*
X446100Y364700D03*
X735300Y251700D03*
X735300Y264700D03*
X94500Y991700D03*
X94500Y1004700D03*
X473700Y351700D03*
X473700Y364700D03*
D10*
X260300Y1072090D03*
X225300Y1072090D03*
X225300Y1057090D03*
X260300Y1057090D03*
D11*
X516800Y1073100D03*
X516800Y1060100D03*
D13*
X892900Y638176D03*
X879900Y638176D03*
D11*
X607376Y1071500D03*
X607376Y1058500D03*
D13*
X822600Y247400D03*
X809600Y247400D03*
D11*
X209600Y1071500D03*
X209600Y1058500D03*
D37*
X1581364Y144324D02*
X1581364Y135436D01*
X1577636Y135436D01*
X1577636Y144324D01*
X1581364Y144324D01*
X1581364Y138576D02*
X1577636Y138576D01*
X1577636Y141716D02*
X1581364Y141716D01*
X1589364Y144324D02*
X1589364Y135436D01*
X1585636Y135436D01*
X1585636Y144324D01*
X1589364Y144324D01*
X1589364Y138576D02*
X1585636Y138576D01*
X1585636Y141716D02*
X1589364Y141716D01*
X1597364Y144324D02*
X1597364Y135436D01*
X1593636Y135436D01*
X1593636Y144324D01*
X1597364Y144324D01*
X1597364Y138576D02*
X1593636Y138576D01*
X1593636Y141716D02*
X1597364Y141716D01*
X1605364Y144324D02*
X1605364Y135436D01*
X1601636Y135436D01*
X1601636Y144324D01*
X1605364Y144324D01*
X1605364Y138576D02*
X1601636Y138576D01*
X1601636Y141716D02*
X1605364Y141716D01*
X1605564Y115164D02*
X1605564Y106276D01*
X1601836Y106276D01*
X1601836Y115164D01*
X1605564Y115164D01*
X1605564Y109416D02*
X1601836Y109416D01*
X1601836Y112556D02*
X1605564Y112556D01*
X1597364Y115164D02*
X1597364Y106276D01*
X1593636Y106276D01*
X1593636Y115164D01*
X1597364Y115164D01*
X1597364Y109416D02*
X1593636Y109416D01*
X1593636Y112556D02*
X1597364Y112556D01*
X1589364Y115164D02*
X1589364Y106276D01*
X1585636Y106276D01*
X1585636Y115164D01*
X1589364Y115164D01*
X1589364Y109416D02*
X1585636Y109416D01*
X1585636Y112556D02*
X1589364Y112556D01*
X1581364Y115164D02*
X1581364Y106276D01*
X1577636Y106276D01*
X1577636Y115164D01*
X1581364Y115164D01*
X1581364Y109416D02*
X1577636Y109416D01*
X1577636Y112556D02*
X1581364Y112556D01*
D38*
X663600Y79800D03*
D39*
X655980Y79800D03*
X671220Y79800D03*
D40*
X145300Y679000D03*
X280600Y259000D03*
X146100Y199000D03*
X187100Y219000D03*
X233600Y239000D03*
X1500100Y589000D03*
X366600Y259000D03*
X443100Y789000D03*
X1069600Y309000D03*
X186824Y678924D03*
X1503700Y619000D03*
X262900Y859000D03*
X264900Y919800D03*
X774100Y949800D03*
X873300Y949800D03*
X822500Y949800D03*
X101700Y169800D03*
D41*
X321610Y583010D02*
X329890Y583010D01*
X321610Y583010D02*
X321610Y586290D01*
X329890Y586290D01*
X329890Y583010D01*
X329890Y586004D02*
X321610Y586004D01*
X321610Y570310D02*
X329890Y570310D01*
X321610Y570310D02*
X321610Y573590D01*
X329890Y573590D01*
X329890Y570310D01*
X329890Y573304D02*
X321610Y573304D01*
X321610Y557610D02*
X329890Y557610D01*
X321610Y557610D02*
X321610Y560890D01*
X329890Y560890D01*
X329890Y557610D01*
X329890Y560604D02*
X321610Y560604D01*
X321610Y544910D02*
X329890Y544910D01*
X321610Y544910D02*
X321610Y548190D01*
X329890Y548190D01*
X329890Y544910D01*
X329890Y547904D02*
X321610Y547904D01*
X399510Y544910D02*
X407790Y544910D01*
X399510Y544910D02*
X399510Y548190D01*
X407790Y548190D01*
X407790Y544910D01*
X407790Y547904D02*
X399510Y547904D01*
X399510Y557610D02*
X407790Y557610D01*
X399510Y557610D02*
X399510Y560890D01*
X407790Y560890D01*
X407790Y557610D01*
X407790Y560604D02*
X399510Y560604D01*
X399510Y570310D02*
X407790Y570310D01*
X399510Y570310D02*
X399510Y573590D01*
X407790Y573590D01*
X407790Y570310D01*
X407790Y573304D02*
X399510Y573304D01*
X399510Y583010D02*
X407790Y583010D01*
X399510Y583010D02*
X399510Y586290D01*
X407790Y586290D01*
X407790Y583010D01*
X407790Y586004D02*
X399510Y586004D01*
D42*
X364700Y565600D03*
D43*
X83400Y462900D03*
X96100Y462900D03*
X108800Y462900D03*
X121500Y462900D03*
X134200Y462900D03*
X146900Y462900D03*
X159600Y462900D03*
X172300Y462900D03*
X185000Y462900D03*
X197700Y462900D03*
X210400Y462900D03*
X223100Y462900D03*
X235800Y462900D03*
X248500Y462900D03*
X248500Y637900D03*
X235800Y637900D03*
X223100Y637900D03*
X210400Y637900D03*
X197700Y637900D03*
X185000Y637900D03*
X172300Y637900D03*
X159600Y637900D03*
X146900Y637900D03*
X134200Y637900D03*
X121500Y637900D03*
X108800Y637900D03*
X96100Y637900D03*
X83400Y637900D03*
D15*
X140600Y535350D03*
X128100Y522850D03*
X128100Y535350D03*
X128100Y547850D03*
X140600Y522850D03*
X140600Y547850D03*
X153100Y522850D03*
X153100Y535350D03*
X153100Y547850D03*
D44*
X891729Y608029D02*
X891729Y627071D01*
X896171Y627071D01*
X896171Y608029D01*
X891729Y608029D01*
X891729Y611344D02*
X896171Y611344D01*
X896171Y614659D02*
X891729Y614659D01*
X891729Y617974D02*
X896171Y617974D01*
X896171Y621289D02*
X891729Y621289D01*
X891729Y624604D02*
X896171Y624604D01*
X879029Y627071D02*
X879029Y608029D01*
X879029Y627071D02*
X883471Y627071D01*
X883471Y608029D01*
X879029Y608029D01*
X879029Y611344D02*
X883471Y611344D01*
X883471Y614659D02*
X879029Y614659D01*
X879029Y617974D02*
X883471Y617974D01*
X883471Y621289D02*
X879029Y621289D01*
X879029Y624604D02*
X883471Y624604D01*
X866329Y627071D02*
X866329Y608029D01*
X866329Y627071D02*
X870771Y627071D01*
X870771Y608029D01*
X866329Y608029D01*
X866329Y611344D02*
X870771Y611344D01*
X870771Y614659D02*
X866329Y614659D01*
X866329Y617974D02*
X870771Y617974D01*
X870771Y621289D02*
X866329Y621289D01*
X866329Y624604D02*
X870771Y624604D01*
X853629Y627071D02*
X853629Y608029D01*
X853629Y627071D02*
X858071Y627071D01*
X858071Y608029D01*
X853629Y608029D01*
X853629Y611344D02*
X858071Y611344D01*
X858071Y614659D02*
X853629Y614659D01*
X853629Y617974D02*
X858071Y617974D01*
X858071Y621289D02*
X853629Y621289D01*
X853629Y624604D02*
X858071Y624604D01*
X840929Y627071D02*
X840929Y608029D01*
X840929Y627071D02*
X845371Y627071D01*
X845371Y608029D01*
X840929Y608029D01*
X840929Y611344D02*
X845371Y611344D01*
X845371Y614659D02*
X840929Y614659D01*
X840929Y617974D02*
X845371Y617974D01*
X845371Y621289D02*
X840929Y621289D01*
X840929Y624604D02*
X845371Y624604D01*
X828229Y627071D02*
X828229Y608029D01*
X828229Y627071D02*
X832671Y627071D01*
X832671Y608029D01*
X828229Y608029D01*
X828229Y611344D02*
X832671Y611344D01*
X832671Y614659D02*
X828229Y614659D01*
X828229Y617974D02*
X832671Y617974D01*
X832671Y621289D02*
X828229Y621289D01*
X828229Y624604D02*
X832671Y624604D01*
X815529Y627071D02*
X815529Y608029D01*
X815529Y627071D02*
X819971Y627071D01*
X819971Y608029D01*
X815529Y608029D01*
X815529Y611344D02*
X819971Y611344D01*
X819971Y614659D02*
X815529Y614659D01*
X815529Y617974D02*
X819971Y617974D01*
X819971Y621289D02*
X815529Y621289D01*
X815529Y624604D02*
X819971Y624604D01*
X802829Y627071D02*
X802829Y608029D01*
X802829Y627071D02*
X807271Y627071D01*
X807271Y608029D01*
X802829Y608029D01*
X802829Y611344D02*
X807271Y611344D01*
X807271Y614659D02*
X802829Y614659D01*
X802829Y617974D02*
X807271Y617974D01*
X807271Y621289D02*
X802829Y621289D01*
X802829Y624604D02*
X807271Y624604D01*
X802829Y533971D02*
X802829Y514929D01*
X802829Y533971D02*
X807271Y533971D01*
X807271Y514929D01*
X802829Y514929D01*
X802829Y518244D02*
X807271Y518244D01*
X807271Y521559D02*
X802829Y521559D01*
X802829Y524874D02*
X807271Y524874D01*
X807271Y528189D02*
X802829Y528189D01*
X802829Y531504D02*
X807271Y531504D01*
X815529Y533971D02*
X815529Y514929D01*
X815529Y533971D02*
X819971Y533971D01*
X819971Y514929D01*
X815529Y514929D01*
X815529Y518244D02*
X819971Y518244D01*
X819971Y521559D02*
X815529Y521559D01*
X815529Y524874D02*
X819971Y524874D01*
X819971Y528189D02*
X815529Y528189D01*
X815529Y531504D02*
X819971Y531504D01*
X828229Y533971D02*
X828229Y514929D01*
X828229Y533971D02*
X832671Y533971D01*
X832671Y514929D01*
X828229Y514929D01*
X828229Y518244D02*
X832671Y518244D01*
X832671Y521559D02*
X828229Y521559D01*
X828229Y524874D02*
X832671Y524874D01*
X832671Y528189D02*
X828229Y528189D01*
X828229Y531504D02*
X832671Y531504D01*
X840929Y533971D02*
X840929Y514929D01*
X840929Y533971D02*
X845371Y533971D01*
X845371Y514929D01*
X840929Y514929D01*
X840929Y518244D02*
X845371Y518244D01*
X845371Y521559D02*
X840929Y521559D01*
X840929Y524874D02*
X845371Y524874D01*
X845371Y528189D02*
X840929Y528189D01*
X840929Y531504D02*
X845371Y531504D01*
X853629Y533971D02*
X853629Y514929D01*
X853629Y533971D02*
X858071Y533971D01*
X858071Y514929D01*
X853629Y514929D01*
X853629Y518244D02*
X858071Y518244D01*
X858071Y521559D02*
X853629Y521559D01*
X853629Y524874D02*
X858071Y524874D01*
X858071Y528189D02*
X853629Y528189D01*
X853629Y531504D02*
X858071Y531504D01*
X866329Y533971D02*
X866329Y514929D01*
X866329Y533971D02*
X870771Y533971D01*
X870771Y514929D01*
X866329Y514929D01*
X866329Y518244D02*
X870771Y518244D01*
X870771Y521559D02*
X866329Y521559D01*
X866329Y524874D02*
X870771Y524874D01*
X870771Y528189D02*
X866329Y528189D01*
X866329Y531504D02*
X870771Y531504D01*
X879029Y533971D02*
X879029Y514929D01*
X879029Y533971D02*
X883471Y533971D01*
X883471Y514929D01*
X879029Y514929D01*
X879029Y518244D02*
X883471Y518244D01*
X883471Y521559D02*
X879029Y521559D01*
X879029Y524874D02*
X883471Y524874D01*
X883471Y528189D02*
X879029Y528189D01*
X879029Y531504D02*
X883471Y531504D01*
X891729Y533971D02*
X891729Y514929D01*
X891729Y533971D02*
X896171Y533971D01*
X896171Y514929D01*
X891729Y514929D01*
X891729Y518244D02*
X896171Y518244D01*
X896171Y521559D02*
X891729Y521559D01*
X891729Y524874D02*
X896171Y524874D01*
X896171Y528189D02*
X891729Y528189D01*
X891729Y531504D02*
X896171Y531504D01*
D45*
X1393082Y521782D02*
X1400018Y521782D01*
X1393082Y521782D02*
X1393082Y523818D01*
X1400018Y523818D01*
X1400018Y521782D01*
X1400018Y516782D02*
X1393082Y516782D01*
X1393082Y518818D01*
X1400018Y518818D01*
X1400018Y516782D01*
X1400018Y511782D02*
X1393082Y511782D01*
X1393082Y513818D01*
X1400018Y513818D01*
X1400018Y511782D01*
X1400018Y506782D02*
X1393082Y506782D01*
X1393082Y508818D01*
X1400018Y508818D01*
X1400018Y506782D01*
X1412782Y506782D02*
X1419718Y506782D01*
X1412782Y506782D02*
X1412782Y508818D01*
X1419718Y508818D01*
X1419718Y506782D01*
X1419718Y511782D02*
X1412782Y511782D01*
X1412782Y513818D01*
X1419718Y513818D01*
X1419718Y511782D01*
X1419718Y516782D02*
X1412782Y516782D01*
X1412782Y518818D01*
X1419718Y518818D01*
X1419718Y516782D01*
X1419718Y521782D02*
X1412782Y521782D01*
X1412782Y523818D01*
X1419718Y523818D01*
X1419718Y521782D01*
D46*
X1406400Y515300D03*
M02*
